<svg width="127" height="165" viewBox="0 0 127 165" fill="none" xmlns="http://www.w3.org/2000/svg">
<path d="M126.921 25.6748V158.597C126.921 161.761 124.347 164.334 121.182 164.334H15.7339C12.5691 164.334 9.99512 161.761 9.99512 158.597V6.35453C9.99512 3.19071 12.5691 0.617432 15.7339 0.617432H101.857L126.921 25.6748Z" fill="#F6D372"/>
<path d="M126.921 25.6748V158.597C126.921 161.761 124.347 164.334 121.182 164.334H112.996C116.161 164.334 118.735 161.761 118.735 158.597V25.6748L93.6704 0.617432H101.857L126.921 25.6748Z" fill="#F6C752"/>
<path d="M126.921 25.6748H107.595C104.43 25.6748 101.856 23.1016 101.856 19.9378V0.617432L126.921 25.6748Z" fill="#F7BB38"/>
<path d="M53.4996 56.4693H10.0374V49.5934H57.7614V52.2509C57.7192 54.571 55.8204 56.4693 53.4996 56.4693Z" fill="#F6C752"/>
<path d="M57.8457 49.5934H0.416504V26.3499C0.416504 24.5781 1.85118 23.186 3.58123 23.186H57.8457C59.6179 23.186 61.0104 24.6203 61.0104 26.3499V46.4296C61.0104 48.1591 59.5757 49.5934 57.8457 49.5934Z" fill="white"/>
<path d="M61.0104 46.0077V46.3874C61.0104 48.1591 59.5757 49.5512 57.8457 49.5512H0.416504V26.3076C0.416504 24.5359 1.85118 23.1438 3.58123 23.1438H5.2269V31.4119C5.2269 39.4691 11.7673 46.0077 19.8268 46.0077H61.0104Z" fill="#E2E2E2"/>
<path d="M0.416504 49.5934L10.0373 60.5613V49.5934H0.416504Z" fill="#C6C6C6"/>
<path d="M45.862 83.5517H24.0466C23.3292 83.5517 22.6963 82.961 22.6963 82.2017V71.6557C22.6963 70.9385 23.287 70.3058 24.0466 70.3058H45.862C46.5794 70.3058 47.2123 70.8963 47.2123 71.6557V82.2017C47.2123 82.9188 46.6216 83.5517 45.862 83.5517Z" fill="white"/>
<path d="M45.862 143.875H24.0466C23.3292 143.875 22.6963 143.285 22.6963 142.525V88.1076C22.6963 87.3904 23.287 86.7577 24.0466 86.7577H45.862C46.5794 86.7577 47.2123 87.3482 47.2123 88.1076V142.525C47.2123 143.242 46.6216 143.875 45.862 143.875Z" fill="white"/>
<path d="M108.988 83.5517H55.3139C54.5965 83.5517 53.9636 82.961 53.9636 82.2017V71.6557C53.9636 70.9385 54.5544 70.3058 55.3139 70.3058H108.988C109.705 70.3058 110.338 70.8963 110.338 71.6557V82.2017C110.296 82.9188 109.705 83.5517 108.988 83.5517Z" fill="white"/>
<path d="M68.6479 95.8273H55.2716C54.5543 95.8273 53.9214 95.2367 53.9214 94.4774V88.0655C53.9214 87.3483 54.5121 86.7156 55.2716 86.7156H68.6479C69.3652 86.7156 69.9982 87.3061 69.9982 88.0655V94.4774C69.9982 95.2367 69.4074 95.8273 68.6479 95.8273Z" fill="white"/>
<path d="M88.8178 95.8273H75.4416C74.7243 95.8273 74.0913 95.2367 74.0913 94.4774V88.0655C74.0913 87.3483 74.6821 86.7156 75.4416 86.7156H88.8178C89.5352 86.7156 90.1681 87.3061 90.1681 88.0655V94.4774C90.1681 95.2367 89.5352 95.8273 88.8178 95.8273Z" fill="white"/>
<path d="M108.988 95.8273H95.6115C94.8942 95.8273 94.2612 95.2367 94.2612 94.4774V88.0655C94.2612 87.3483 94.852 86.7156 95.6115 86.7156H108.988C109.705 86.7156 110.338 87.3061 110.338 88.0655V94.4774C110.296 95.2367 109.705 95.8273 108.988 95.8273Z" fill="white"/>
<path d="M68.6479 107.976H55.2716C54.5543 107.976 53.9214 107.386 53.9214 106.626V100.214C53.9214 99.4973 54.5121 98.8645 55.2716 98.8645H68.6479C69.3652 98.8645 69.9982 99.4552 69.9982 100.214V106.626C69.9982 107.386 69.4074 107.976 68.6479 107.976Z" fill="white"/>
<path d="M88.8178 107.976H75.4416C74.7243 107.976 74.0913 107.386 74.0913 106.626V100.214C74.0913 99.4973 74.6821 98.8645 75.4416 98.8645H88.8178C89.5352 98.8645 90.1681 99.4552 90.1681 100.214V106.626C90.1681 107.386 89.5352 107.976 88.8178 107.976Z" fill="white"/>
<path d="M108.988 107.976H95.6115C94.8942 107.976 94.2612 107.386 94.2612 106.626V100.214C94.2612 99.4973 94.852 98.8645 95.6115 98.8645H108.988C109.705 98.8645 110.338 99.4552 110.338 100.214V106.626C110.296 107.386 109.705 107.976 108.988 107.976Z" fill="white"/>
<path d="M68.6479 119.957H55.2716C54.5543 119.957 53.9214 119.366 53.9214 118.607V112.195C53.9214 111.478 54.5121 110.845 55.2716 110.845H68.6479C69.3652 110.845 69.9982 111.435 69.9982 112.195V118.607C69.9982 119.324 69.4074 119.957 68.6479 119.957Z" fill="white"/>
<path d="M88.8178 119.957H75.4416C74.7243 119.957 74.0913 119.366 74.0913 118.607V112.195C74.0913 111.478 74.6821 110.845 75.4416 110.845H88.8178C89.5352 110.845 90.1681 111.435 90.1681 112.195V118.607C90.1681 119.324 89.5352 119.957 88.8178 119.957Z" fill="white"/>
<path d="M108.988 119.957H95.6115C94.8942 119.957 94.2612 119.366 94.2612 118.607V112.195C94.2612 111.478 94.852 110.845 95.6115 110.845H108.988C109.705 110.845 110.338 111.435 110.338 112.195V118.607C110.296 119.324 109.705 119.957 108.988 119.957Z" fill="white"/>
<path d="M68.6479 131.895H55.2716C54.5543 131.895 53.9214 131.304 53.9214 130.545V124.133C53.9214 123.416 54.5121 122.783 55.2716 122.783H68.6479C69.3652 122.783 69.9982 123.374 69.9982 124.133V130.545C69.9982 131.304 69.4074 131.895 68.6479 131.895Z" fill="white"/>
<path d="M88.8178 131.895H75.4416C74.7243 131.895 74.0913 131.304 74.0913 130.545V124.133C74.0913 123.416 74.6821 122.783 75.4416 122.783H88.8178C89.5352 122.783 90.1681 123.374 90.1681 124.133V130.545C90.1681 131.304 89.5352 131.895 88.8178 131.895Z" fill="white"/>
<path d="M108.988 131.895H95.6115C94.8942 131.895 94.2612 131.304 94.2612 130.545V124.133C94.2612 123.416 94.852 122.783 95.6115 122.783H108.988C109.705 122.783 110.338 123.374 110.338 124.133V130.545C110.296 131.304 109.705 131.895 108.988 131.895Z" fill="white"/>
<path d="M68.6479 143.875H55.2716C54.5543 143.875 53.9214 143.284 53.9214 142.525V136.113C53.9214 135.396 54.5121 134.763 55.2716 134.763H68.6479C69.3652 134.763 69.9982 135.354 69.9982 136.113V142.525C69.9982 143.242 69.4074 143.875 68.6479 143.875Z" fill="white"/>
<path d="M88.8178 143.875H75.4416C74.7243 143.875 74.0913 143.284 74.0913 142.525V136.113C74.0913 135.396 74.6821 134.763 75.4416 134.763H88.8178C89.5352 134.763 90.1681 135.354 90.1681 136.113V142.525C90.1681 143.242 89.5352 143.875 88.8178 143.875Z" fill="white"/>
<path d="M108.988 143.875H95.6115C94.8942 143.875 94.2612 143.284 94.2612 142.525V136.113C94.2612 135.396 94.852 134.763 95.6115 134.763H108.988C109.705 134.763 110.338 135.354 110.338 136.113V142.525C110.296 143.242 109.705 143.875 108.988 143.875Z" fill="white"/>
<path d="M19.3205 27.8685H22.3165V34.1117H19.3205C18.4766 31.8759 16.9997 30.7369 14.8899 30.7369C13.1599 30.7369 11.8518 31.3276 10.9656 32.5088C10.0795 33.6899 9.61537 35.1241 9.61537 36.7693C9.61537 38.4989 10.0795 39.8909 11.0078 40.9877C11.9361 42.0423 13.1598 42.5908 14.5945 42.5908C15.776 42.5908 16.8309 42.169 17.717 41.3675C18.6032 40.566 19.2361 39.427 19.5315 37.9927L23.0338 39.6801C21.6835 43.8141 18.772 45.8811 14.257 45.8811C11.05 45.8811 8.64481 45.0374 7.04135 43.3079C5.43789 41.5783 4.59399 39.4269 4.59399 36.7693C4.59399 34.9132 5.01596 33.268 5.85988 31.8338C6.70381 30.3995 7.8431 29.3871 9.27778 28.67C10.7125 27.9528 12.2737 27.6154 13.9616 27.6154C16.0714 27.6154 17.8436 28.1637 19.2783 29.2605V27.8685H19.3205Z" fill="#E88032"/>
<path d="M25.0169 45.628V39.5535H28.0129C28.0551 40.6503 28.3504 41.494 28.899 42.0002C29.4475 42.5064 30.0805 42.8017 30.7556 42.8017C31.3042 42.8017 31.7683 42.6329 32.1481 42.2533C32.5278 41.8736 32.6967 41.4096 32.6967 40.9034C32.6967 40.355 32.5278 39.891 32.1481 39.5113C31.7683 39.1316 31.0932 38.7098 30.1227 38.2458C28.0551 37.2755 26.6626 36.3897 25.9452 35.6304C25.2279 34.8711 24.8481 33.8586 24.8481 32.5509C24.8481 30.9901 25.3545 29.809 26.325 28.9231C27.2955 28.0794 28.3926 27.6576 29.6163 27.6576C31.051 27.6576 32.1059 28.2059 32.9076 29.3027V27.8263H35.9036V33.2259H32.9076C32.8232 32.3822 32.5279 31.7494 32.0637 31.2854C31.5995 30.8213 31.0088 30.6105 30.3759 30.6105C29.8695 30.6105 29.4475 30.737 29.11 30.9901C28.7724 31.2432 28.6036 31.5807 28.6036 32.0447C28.6036 32.4244 28.7302 32.7618 29.0256 33.0993C29.321 33.4368 30.1227 33.9008 31.5151 34.4914C32.8232 35.082 33.836 35.5882 34.5533 36.0944C35.2706 36.5585 35.8192 37.1912 36.199 37.9505C36.6209 38.7098 36.8319 39.5957 36.8319 40.5659C36.8319 42.3376 36.3255 43.6454 35.3128 44.5313C34.3001 45.4172 33.0764 45.8812 31.6839 45.8812C30.1227 45.8812 28.9412 45.2905 28.0972 44.1516V45.6702H25.0169V45.628Z" fill="#E88032"/>
<path d="M45.0181 45.7546L39.7436 30.8635H37.6338V27.8685H46.706V30.8635H44.3852L47.3812 39.7645L50.3771 30.8635H48.0985V27.8685H55.9892V30.8635H53.8372L48.7314 45.7546H45.0181Z" fill="#E88032"/>
</svg>
